# xmcd
# 
# Track frame offsets:
#   150
#   19324
#   34917
#   49176
#   65146
#   83925
#   99677
#   114073
#   130993
#   153444
#   169773
#   184475
#   198018
#   213568
# 
# Disc length: 3060 seconds
# 
# Revision: 0
# Processed by: cddbd v1.5.1PL2 Copyright (c) Steve Scherf et al.
# Submitted via: Synapstar 1.0 
# 
DISCID=c70bf20e
DTITLE=Various Artist - SD- Country Hits
DYEAR=1900
DGENRE=Country
TTITLE0=Martina McBride - Blessed
TTITLE1=Charlie Daniels Band - This Ain't No Rag It's A Flag
TTITLE2=Lee Ann Womack - Does My Ring Burn Your Finger
TTITLE3=Trisha Yearwood - Inside Out
TTITLE4=Mark Mcguinn - She Doesn't Dance
TTITLE5=Tammy Cochran - I Cry
TTITLE6=Chely Wright - Jezebel
TTITLE7=Kenny Rogers - Homeland
TTITLE8=Alan Jackson - Where Were You
TTITLE9=Wild Horses - I Will Survive
TTITLE10=Blackhawk - Days Of America
TTITLE11=Alison Krauss and Union Station - The Lucky One
TTITLE12=Steve Azar - I Don't Have To Be Me ('Till Monday)
TTITLE13=Patty loveless/Travis Tritt - Out Of Control Raging Fire
EXTD=MediaType: Karaoke CD+G Producer: StarDisc
EXTT0=
EXTT1=
EXTT2=
EXTT3=
EXTT4=
EXTT5=
EXTT6=
EXTT7=
EXTT8=
EXTT9=
EXTT10=
EXTT11=
EXTT12=
EXTT13=
PLAYORDER=
